<svg xmlns="http://www.w3.org/2000/svg" width="504" height="192" class="svgbob"><style>.svgbob line, .svgbob path, .svgbob circle, .svgbob rect, .svgbob polygon {
    stroke: black;
    stroke-width: 2;
    stroke-opacity: 1;
    fill-opacity: 1;
    stroke-linecap: round;
    stroke-linejoin: miter;
}
.svgbob text {
    white-space: pre;
    fill: black;
    font-family: Iosevka Fixed, monospace;
    font-size: 14px;
}
.svgbob rect.backdrop {
    stroke: none;
    fill: white;
}
.svgbob .broken {
    stroke-dasharray: 8;
}
.svgbob .filled {
    fill: black;
}
.svgbob .bg_filled {
    fill: white;
    stroke-width: 1;
}
.svgbob .nofill {
    fill: white;
}
.svgbob .end_marked_arrow {
    marker-end: url(#arrow);
}
.svgbob .start_marked_arrow {
    marker-start: url(#arrow);
}
.svgbob .end_marked_diamond {
    marker-end: url(#diamond);
}
.svgbob .start_marked_diamond {
    marker-start: url(#diamond);
}
.svgbob .end_marked_circle {
    marker-end: url(#circle);
}
.svgbob .start_marked_circle {
    marker-start: url(#circle);
}
.svgbob .end_marked_open_circle {
    marker-end: url(#open_circle);
}
.svgbob .start_marked_open_circle {
    marker-start: url(#open_circle);
}
.svgbob .end_marked_big_open_circle {
    marker-end: url(#big_open_circle);
}
.svgbob .start_marked_big_open_circle {
    marker-start: url(#big_open_circle);
}<!--separator--></style><defs><marker id="arrow" viewBox="-2 -2 8 8" refX="4" refY="2" markerWidth="7" markerHeight="7" orient="auto-start-reverse"><polygon points="0,0 0,4 4,2 0,0"></polygon></marker><marker id="diamond" viewBox="-2 -2 8 8" refX="4" refY="2" markerWidth="7" markerHeight="7" orient="auto-start-reverse"><polygon points="0,2 2,0 4,2 2,4 0,2"></polygon></marker><marker id="circle" viewBox="0 0 8 8" refX="4" refY="4" markerWidth="7" markerHeight="7" orient="auto-start-reverse"><circle cx="4" cy="4" r="2" class="filled"></circle></marker><marker id="open_circle" viewBox="0 0 8 8" refX="4" refY="4" markerWidth="7" markerHeight="7" orient="auto-start-reverse"><circle cx="4" cy="4" r="2" class="bg_filled"></circle></marker><marker id="big_open_circle" viewBox="0 0 8 8" refX="4" refY="4" markerWidth="7" markerHeight="7" orient="auto-start-reverse"><circle cx="4" cy="4" r="3" class="bg_filled"></circle></marker></defs><rect class="backdrop" x="0" y="0" width="504" height="192"></rect><rect x="4" y="8" width="104" height="48" class="solid nofill" rx="0"></rect><text x="18" y="28" >Downstream</text><text x="34" y="44" >Client</text><rect x="196" y="8" width="112" height="48" class="solid nofill" rx="0"></rect><line x1="200" y1="24" x2="208" y2="24" class="solid"></line><line x1="212" y1="32" x2="212" y2="48" class="solid"></line><text x="234" y="28" >Proxy</text><line x1="308" y1="16" x2="308" y2="32" class="solid"></line><line x1="288" y1="56" x2="296" y2="56" class="solid"></line><rect x="388" y="8" width="104" height="48" class="solid nofill" rx="0"></rect><text x="410" y="28" >Upstream</text><text x="418" y="44" >Server</text><line x1="184" y1="24" x2="192" y2="24" class="solid"></line><line x1="112" y1="40" x2="184" y2="40" class="solid"></line><polygon points="184,36 192,40 184,44" class="filled"></polygon><line x1="172" y1="48" x2="172" y2="64" class="solid"></line><line x1="176" y1="72" x2="184" y2="72" class="solid"></line><line x1="304" y1="24" x2="312" y2="24" class="solid"></line><line x1="320" y1="24" x2="328" y2="24" class="solid"></line><line x1="312" y1="40" x2="376" y2="40" class="solid"></line><line x1="332" y1="32" x2="332" y2="48" class="solid"></line><polygon points="376,36 384,40 376,44" class="filled"></polygon><line x1="292" y1="48" x2="292" y2="64" class="solid"></line><line x1="296" y1="72" x2="304" y2="72" class="solid"></line><line x1="192" y1="72" x2="200" y2="72" class="solid"></line><polygon points="192,92 196,80 200,92" class="filled"></polygon><line x1="144" y1="136" x2="152" y2="136" class="solid"></line><line x1="160" y1="136" x2="168" y2="136" class="solid"></line><line x1="176" y1="136" x2="184" y2="136" class="solid"></line><line x1="192" y1="136" x2="200" y2="136" class="solid"></line><text x="138" y="156" >Listeners</text><line x1="144" y1="168" x2="152" y2="168" class="solid"></line><line x1="160" y1="168" x2="168" y2="168" class="solid"></line><line x1="176" y1="168" x2="184" y2="168" class="solid"></line><line x1="192" y1="168" x2="200" y2="168" class="solid"></line><line x1="312" y1="72" x2="320" y2="72" class="solid"></line><polygon points="312,92 316,80 320,92" class="filled"></polygon><line x1="304" y1="136" x2="312" y2="136" class="solid"></line><line x1="320" y1="136" x2="328" y2="136" class="solid"></line><line x1="336" y1="136" x2="344" y2="136" class="solid"></line><line x1="352" y1="136" x2="360" y2="136" class="solid"></line><line x1="368" y1="136" x2="376" y2="136" class="solid"></line><text x="298" y="156" >Connectors</text><line x1="380" y1="144" x2="380" y2="160" class="solid"></line><line x1="304" y1="168" x2="312" y2="168" class="solid"></line><line x1="320" y1="168" x2="328" y2="168" class="solid"></line><line x1="336" y1="168" x2="344" y2="168" class="solid"></line><line x1="352" y1="168" x2="360" y2="168" class="solid"></line><line x1="368" y1="168" x2="376" y2="168" class="solid"></line><g><line x1="172" y1="24" x2="176" y2="24" class="solid"></line><line x1="172" y1="24" x2="172" y2="32" class="solid"></line></g><g><line x1="292" y1="24" x2="296" y2="24" class="solid"></line><line x1="292" y1="24" x2="292" y2="32" class="solid"></line></g><g><line x1="196" y1="92" x2="196" y2="104" class="solid"></line><line x1="172" y1="104" x2="196" y2="104" class="solid"></line><line x1="172" y1="104" x2="172" y2="128" class="solid"></line></g><g><line x1="132" y1="136" x2="136" y2="136" class="solid"></line><line x1="132" y1="136" x2="132" y2="144" class="solid"></line></g><g><line x1="208" y1="136" x2="212" y2="136" class="solid"></line><line x1="212" y1="136" x2="212" y2="144" class="solid"></line></g><g><line x1="132" y1="160" x2="132" y2="168" class="solid"></line><line x1="132" y1="168" x2="136" y2="168" class="solid"></line></g><g><line x1="212" y1="160" x2="212" y2="168" class="solid"></line><line x1="208" y1="168" x2="212" y2="168" class="solid"></line></g><g><line x1="212" y1="64" x2="212" y2="72" class="solid"></line><line x1="208" y1="72" x2="212" y2="72" class="solid"></line></g><g><line x1="316" y1="92" x2="316" y2="104" class="solid"></line><line x1="316" y1="104" x2="340" y2="104" class="solid"></line><line x1="340" y1="104" x2="340" y2="128" class="solid"></line></g><g><line x1="292" y1="136" x2="296" y2="136" class="solid"></line><line x1="292" y1="136" x2="292" y2="144" class="solid"></line></g><g><line x1="292" y1="160" x2="292" y2="168" class="solid"></line><line x1="292" y1="168" x2="296" y2="168" class="solid"></line></g><g><line x1="332" y1="64" x2="332" y2="72" class="solid"></line><line x1="328" y1="72" x2="332" y2="72" class="solid"></line></g></svg>