<?xml version="1.0" encoding="utf-8" standalone="no"?><!DOCTYPE svg PUBLIC "-//W3C//DTD SVG 20010904//EN" "http://www.w3.org/TR/2001/REC-SVG-20010904/DTD/svg10.dtd"><svg xmlns="http://www.w3.org/2000/svg" width="255" height="315" xmlns:xlink="http://www.w3.org/1999/xlink"><source><![CDATA[Consumer -> Broker: 索取记录
Broker -> Consumer: 发送记录
Consumer -> Consumer: 处理记录
Consumer -> Broker: 提交偏移量
]]></source><desc></desc><defs><marker viewBox="0 0 5 5" markerWidth="5" markerHeight="5" orient="auto" refX="5" refY="2.5" id="markerArrowBlock"><path d="M 0 0 L 5 2.5 L 0 5 z"></path></marker><marker viewBox="0 0 9.6 16" markerWidth="4" markerHeight="16" orient="auto" refX="9.6" refY="8" id="markerArrowOpen"><path d="M 9.6,8 1.92,16 0,13.7 5.76,8 0,2.286 1.92,0 9.6,8 z"></path></marker></defs><g class="title"></g><g class="actor"><path d="M10,20C93.2,15.6 102.0,24.4 119.5,20.0C117.8,29.4 121.2,39.2 119.5,62.5C93.2,58.1 72.5,66.9 10.0,62.5C11.7,46.3 8.3,52.1 10.0,20.0" stroke="#000000" fill="#ffffff" style="stroke-width: 2;"></path><text x="20" y="44" style="font-size: 16px; font-family: danielbd;"><tspan x="20">Consumer</tspan></text></g><g class="actor"><path d="M10,252.5C40.6,248.1 80.0,256.9 119.5,252.5C121.2,262.4 117.8,273.0 119.5,295.0C86.7,299.4 36.3,290.6 10.0,295.0C11.7,259.3 8.3,288.2 10.0,252.5" stroke="#000000" fill="#ffffff" style="stroke-width: 2;"></path><text x="20" y="276.5" style="font-size: 16px; font-family: danielbd;"><tspan x="20">Consumer</tspan></text></g><path d="M64.8,62.5C57.2,154.5 72.4,105.5 64.8,252.5" stroke="#000000" fill="none" style="stroke-width: 2;"></path><g class="actor"><path d="M139.5390625,20C209.4,16.6 204.6,23.4 225.1,20.0C226.8,52.3 223.4,53.2 225.1,62.5C153.2,59.1 177.1,65.9 139.5,62.5C137.8,55.7 141.2,26.8 139.5,20.0" stroke="#000000" fill="#ffffff" style="stroke-width: 2;"></path><text x="149.5390625" y="44" style="font-size: 16px; font-family: danielbd;"><tspan x="149.5390625">Broker</tspan></text></g><g class="actor"><path d="M139.5390625,252.5C209.6,255.9 160.8,249.1 225.1,252.5C223.4,288.2 226.8,284.8 225.1,295.0C211.4,291.6 174.3,298.4 139.5,295.0C137.8,284.8 141.2,270.0 139.5,252.5" stroke="#000000" fill="#ffffff" style="stroke-width: 2;"></path><text x="149.5390625" y="276.5" style="font-size: 16px; font-family: danielbd;"><tspan x="149.5390625">Broker</tspan></text></g><path d="M182.3,62.5C189.9,92.9 174.7,184.2 182.3,252.5" stroke="#000000" fill="none" style="stroke-width: 2;"></path><g class="signal"><text x="91.548828125" y="90.25" style="font-size: 16px; font-family: danielbd;"><tspan x="91.548828125">索取记录</tspan></text><path d="M64.8,105.0C163.5,109.7 83.6,100.3 182.3,105.0" stroke="#000000" fill="none" style="stroke-width: 2; marker-end: url(&quot;#markerArrowBlock&quot;);"></path></g><g class="signal"><text x="91.548828125" y="132.75" style="font-size: 16px; font-family: danielbd;"><tspan x="91.548828125">发送记录</tspan></text><path d="M182.3,147.5C163.5,152.2 98.1,142.8 64.8,147.5" stroke="#000000" fill="none" style="stroke-width: 2; marker-end: url(&quot;#markerArrowBlock&quot;);"></path></g><g class="signal"><text x="89.76953125" y="183.75" style="font-size: 16px; font-family: danielbd;"><tspan x="89.76953125">处理记录</tspan></text><path d="M64.8,167.5C75.7,168.3 80.0,166.7 84.8,167.5" stroke="#000000" fill="none" style="stroke-width: 2;"></path><path d="M84.8,167.5C85.9,172.9 83.7,189.1 84.8,195.0" stroke="#000000" fill="none" style="stroke-width: 2;"></path><path d="M84.8,195.0C80.0,195.8 69.6,194.2 64.8,195.0" stroke="#000000" fill="none" style="stroke-width: 2; marker-end: url(&quot;#markerArrowBlock&quot;);"></path></g><g class="signal"><text x="83.548828125" y="217.75" style="font-size: 16px; font-family: danielbd;"><tspan x="83.548828125">提交偏移量</tspan></text><path d="M64.8,232.5C154.1,227.8 96.1,237.2 182.3,232.5" stroke="#000000" fill="none" style="stroke-width: 2; marker-end: url(&quot;#markerArrowBlock&quot;);"></path></g></svg>