<?xml version="1.0" encoding="utf-8" standalone="no"?><!DOCTYPE svg PUBLIC "-//W3C//DTD SVG 20010904//EN" "http://www.w3.org/TR/2001/REC-SVG-20010904/DTD/svg10.dtd"><svg xmlns="http://www.w3.org/2000/svg" width="350" height="315" xmlns:xlink="http://www.w3.org/1999/xlink"><source><![CDATA[Producer -> Producer: 准备记录
Producer -> Broker: 发送记录
Broker -> Broker: 处理记录
Broker -> Producer: 发送回执
]]></source><desc></desc><defs><marker viewBox="0 0 5 5" markerWidth="5" markerHeight="5" orient="auto" refX="5" refY="2.5" id="markerArrowBlock"><path d="M 0 0 L 5 2.5 L 0 5 z"></path></marker><marker viewBox="0 0 9.6 16" markerWidth="4" markerHeight="16" orient="auto" refX="9.6" refY="8" id="markerArrowOpen"><path d="M 9.6,8 1.92,16 0,13.7 5.76,8 0,2.286 1.92,0 9.6,8 z"></path></marker></defs><g class="title"></g><g class="actor"><path d="M10,20C88.6,24.1 26.2,15.9 111.3,20.0C109.5,30.2 113.0,49.2 111.3,62.5C58.8,66.5 72.9,58.5 10.0,62.5C11.7,27.6 8.3,55.7 10.0,20.0" stroke="#000000" fill="#ffffff" style="stroke-width: 2;"></path><text x="20" y="44" style="font-size: 16px; font-family: danielbd;"><tspan x="20">Producer</tspan></text></g><g class="actor"><path d="M10,252.5C77.9,256.6 84.6,248.4 111.3,252.5C113.0,259.3 109.5,268.9 111.3,295.0C87.0,299.1 84.1,290.9 10.0,295.0C8.3,272.3 11.7,259.3 10.0,252.5" stroke="#000000" fill="#ffffff" style="stroke-width: 2;"></path><text x="20" y="276.5" style="font-size: 16px; font-family: danielbd;"><tspan x="20">Producer</tspan></text></g><path d="M60.6,62.5C53.0,206.9 68.2,111.4 60.6,252.5" stroke="#000000" fill="none" style="stroke-width: 2;"></path><g class="actor"><path d="M131.25,20C191.7,23.4 182.7,16.6 216.8,20.0C218.5,45.8 215.1,55.7 216.8,62.5C144.9,65.9 181.0,59.1 131.3,62.5C132.9,52.3 129.6,52.4 131.3,20.0" stroke="#000000" fill="#ffffff" style="stroke-width: 2;"></path><text x="141.25" y="44" style="font-size: 16px; font-family: danielbd;"><tspan x="141.25">Broker</tspan></text></g><g class="actor"><path d="M131.25,252.5C186.8,249.1 194.2,255.9 216.8,252.5C218.5,268.7 215.1,276.5 216.8,295.0C195.2,298.4 187.8,291.6 131.3,295.0C132.9,263.9 129.6,280.1 131.3,252.5" stroke="#000000" fill="#ffffff" style="stroke-width: 2;"></path><text x="141.25" y="276.5" style="font-size: 16px; font-family: danielbd;"><tspan x="141.25">Broker</tspan></text></g><path d="M174.0,62.5C166.4,92.9 181.6,222.1 174.0,252.5" stroke="#000000" fill="none" style="stroke-width: 2;"></path><g class="signal"><text x="85.625" y="98.75" style="font-size: 16px; font-family: danielbd;"><tspan x="85.625">准备记录</tspan></text><path d="M60.6,82.5C66.4,81.7 77.4,83.3 80.6,82.5" stroke="#000000" fill="none" style="stroke-width: 2;"></path><path d="M80.6,82.5C81.7,86.9 79.5,89.1 80.6,110.0" stroke="#000000" fill="none" style="stroke-width: 2;"></path><path d="M80.6,110.0C74.1,109.2 75.8,110.8 60.6,110.0" stroke="#000000" fill="none" style="stroke-width: 2; marker-end: url(&quot;#markerArrowBlock&quot;);"></path></g><g class="signal"><text x="85.33203125" y="132.75" style="font-size: 16px; font-family: danielbd;"><tspan x="85.33203125">发送记录</tspan></text><path d="M60.6,147.5C155.9,152.0 134.7,143.0 174.0,147.5" stroke="#000000" fill="none" style="stroke-width: 2; marker-end: url(&quot;#markerArrowBlock&quot;);"></path></g><g class="signal"><text x="199.0390625" y="183.75" style="font-size: 16px; font-family: danielbd;"><tspan x="199.0390625">处理记录</tspan></text><path d="M174.0,167.5C180.1,168.3 184.9,166.7 194.0,167.5" stroke="#000000" fill="none" style="stroke-width: 2;"></path><path d="M194.0,167.5C192.9,181.0 195.1,184.9 194.0,195.0" stroke="#000000" fill="none" style="stroke-width: 2;"></path><path d="M194.0,195.0C189.2,195.8 189.5,194.2 174.0,195.0" stroke="#000000" fill="none" style="stroke-width: 2; marker-end: url(&quot;#markerArrowBlock&quot;);"></path></g><g class="signal"><text x="85.33203125" y="217.75" style="font-size: 16px; font-family: danielbd;"><tspan x="85.33203125">发送回执</tspan></text><path d="M174.0,232.5C155.9,237.0 78.8,228.0 60.6,232.5" stroke="#000000" fill="none" style="stroke-width: 2; marker-end: url(&quot;#markerArrowBlock&quot;);"></path></g></svg>