<?xml version="1.0" encoding="utf-8" standalone="no"?><!DOCTYPE svg PUBLIC "-//W3C//DTD SVG 20010904//EN" "http://www.w3.org/TR/2001/REC-SVG-20010904/DTD/svg10.dtd"><svg xmlns="http://www.w3.org/2000/svg" width="500" height="632" xmlns:xlink="http://www.w3.org/1999/xlink"><source><![CDATA[Client->Leader: 发送命令
Leader->Leader: 写入日志条目
Leader->Follower(s): 复制日志条目
Follower(s)->Follower(s): 写入日志条目
Follower(s)->Leader: 大多数复制完成
Leader->Leader: 执行命令
Leader->Leader: 提交日志条目
Leader->Client: 执行完成 
Leader->Follower(s): 请求执行命令
Follower(s)->Follower(s): 执行命令
Follower(s)->Follower(s): 提交日志条目
Follower(s)->Leader: 
]]></source><desc></desc><defs><marker viewBox="0 0 5 5" markerWidth="5" markerHeight="5" orient="auto" refX="5" refY="2.5" id="markerArrowBlock"><path d="M 0 0 L 5 2.5 L 0 5 z"></path></marker><marker viewBox="0 0 9.6 16" markerWidth="4" markerHeight="16" orient="auto" refX="9.6" refY="8" id="markerArrowOpen"><path d="M 9.6,8 1.92,16 0,13.7 5.76,8 0,2.286 1.92,0 9.6,8 z"></path></marker></defs><g class="title"></g><g class="actor"><path d="M10,20C59.7,17.1 64.3,22.9 81.4,20.0C79.7,35.4 83.1,26.8 81.4,62.5C41.4,65.4 28.5,59.6 10.0,62.5C8.3,41.0 11.7,36.6 10.0,20.0" stroke="#000000" fill="#ffffff" style="stroke-width: 2;"></path><text x="20" y="44" style="font-size: 16px; font-family: danielbd;"><tspan x="20">Client</tspan></text></g><g class="actor"><path d="M10,570C45.5,572.9 64.3,567.1 81.4,570.0C79.7,580.2 83.1,576.8 81.4,612.5C24.4,609.6 70.0,615.4 10.0,612.5C11.7,587.0 8.3,594.1 10.0,570.0" stroke="#000000" fill="#ffffff" style="stroke-width: 2;"></path><text x="20" y="594" style="font-size: 16px; font-family: danielbd;"><tspan x="20">Client</tspan></text></g><path d="M45.7,62.5C66.0,207.6 25.4,450.5 45.7,570.0" stroke="#000000" fill="none" style="stroke-width: 2;"></path><g class="actor"><path d="M101.421875,20C119.2,23.3 121.2,16.7 183.8,20.0C182.1,30.2 185.5,26.8 183.8,62.5C164.0,59.2 150.9,65.8 101.4,62.5C103.1,55.3 99.7,52.3 101.4,20.0" stroke="#000000" fill="#ffffff" style="stroke-width: 2;"></path><text x="111.421875" y="44" style="font-size: 16px; font-family: danielbd;"><tspan x="111.421875">Leader</tspan></text></g><g class="actor"><path d="M101.421875,570C148.4,573.3 121.2,566.7 183.8,570.0C185.5,602.3 182.1,600.7 183.8,612.5C148.4,615.8 165.9,609.2 101.4,612.5C99.7,576.8 103.1,595.2 101.4,570.0" stroke="#000000" fill="#ffffff" style="stroke-width: 2;"></path><text x="111.421875" y="594" style="font-size: 16px; font-family: danielbd;"><tspan x="111.421875">Leader</tspan></text></g><path d="M142.6,62.5C162.9,154.4 122.3,405.2 142.6,570.0" stroke="#000000" fill="none" style="stroke-width: 2;"></path><g class="actor"><path d="M223.19921875,20C290.7,15.6 249.8,24.4 334.0,20.0C332.3,32.9 335.7,30.4 334.0,62.5C280.7,58.1 302.7,66.9 223.2,62.5C221.5,26.8 224.9,55.7 223.2,20.0" stroke="#000000" fill="#ffffff" style="stroke-width: 2;"></path><text x="233.19921875" y="44" style="font-size: 16px; font-family: danielbd;"><tspan x="233.19921875">Follower(s)</tspan></text></g><g class="actor"><path d="M223.19921875,570C269.6,574.4 279.5,565.6 334.0,570.0C335.7,587.4 332.3,588.1 334.0,612.5C315.7,616.9 240.9,608.1 223.2,612.5C221.5,601.9 224.9,602.3 223.2,570.0" stroke="#000000" fill="#ffffff" style="stroke-width: 2;"></path><text x="233.19921875" y="594" style="font-size: 16px; font-family: danielbd;"><tspan x="233.19921875">Follower(s)</tspan></text></g><path d="M278.6,62.5C298.9,252.0 258.3,488.8 278.6,570.0" stroke="#000000" fill="none" style="stroke-width: 2;"></path><g class="signal"><text x="62.158203125" y="90.25" style="font-size: 16px; font-family: danielbd;"><tspan x="62.158203125">发送命令</tspan></text><path d="M45.7,105.0C85.6,108.9 61.2,101.1 142.6,105.0" stroke="#000000" fill="none" style="stroke-width: 2; marker-end: url(&quot;#markerArrowBlock&quot;);"></path></g><g class="signal"><text x="167.60546875" y="141.25" style="font-size: 16px; font-family: danielbd;"><tspan x="167.60546875">写入日志条目</tspan></text><path d="M142.6,125.0C159.4,124.2 147.4,125.8 162.6,125.0" stroke="#000000" fill="none" style="stroke-width: 2;"></path><path d="M162.6,125.0C161.5,129.4 163.7,145.7 162.6,152.5" stroke="#000000" fill="none" style="stroke-width: 2;"></path><path d="M162.6,152.5C159.4,151.7 152.2,153.3 142.6,152.5" stroke="#000000" fill="none" style="stroke-width: 2; marker-end: url(&quot;#markerArrowBlock&quot;);"></path></g><g class="signal"><text x="162.60546875" y="175.25" style="font-size: 16px; font-family: danielbd;"><tspan x="162.60546875">复制日志条目</tspan></text><path d="M142.6,190.0C247.6,184.6 164.4,195.4 278.6,190.0" stroke="#000000" fill="none" style="stroke-width: 2; marker-end: url(&quot;#markerArrowBlock&quot;);"></path></g><g class="signal"><text x="303.60546875" y="226.25" style="font-size: 16px; font-family: danielbd;"><tspan x="303.60546875">写入日志条目</tspan></text><path d="M278.6,210.0C295.4,210.8 293.8,209.2 298.6,210.0" stroke="#000000" fill="none" style="stroke-width: 2;"></path><path d="M298.6,210.0C297.5,233.1 299.7,214.4 298.6,237.5" stroke="#000000" fill="none" style="stroke-width: 2;"></path><path d="M298.6,237.5C291.7,238.3 287.0,236.7 278.6,237.5" stroke="#000000" fill="none" style="stroke-width: 2; marker-end: url(&quot;#markerArrowBlock&quot;);"></path></g><g class="signal"><text x="154.60546875" y="260.25" style="font-size: 16px; font-family: danielbd;"><tspan x="154.60546875">大多数复制完成</tspan></text><path d="M278.6,275.0C211.0,280.4 173.5,269.6 142.6,275.0" stroke="#000000" fill="none" style="stroke-width: 2; marker-end: url(&quot;#markerArrowBlock&quot;);"></path></g><g class="signal"><text x="167.60546875" y="311.25" style="font-size: 16px; font-family: danielbd;"><tspan x="167.60546875">执行命令</tspan></text><path d="M142.6,295.0C145.8,295.8 152.0,294.2 162.6,295.0" stroke="#000000" fill="none" style="stroke-width: 2;"></path><path d="M162.6,295.0C163.7,315.9 161.5,316.8 162.6,322.5" stroke="#000000" fill="none" style="stroke-width: 2;"></path><path d="M162.6,322.5C157.2,323.3 147.5,321.7 142.6,322.5" stroke="#000000" fill="none" style="stroke-width: 2; marker-end: url(&quot;#markerArrowBlock&quot;);"></path></g><g class="signal"><text x="167.60546875" y="353.75" style="font-size: 16px; font-family: danielbd;"><tspan x="167.60546875">提交日志条目</tspan></text><path d="M142.6,337.5C156.9,338.3 147.6,336.7 162.6,337.5" stroke="#000000" fill="none" style="stroke-width: 2;"></path><path d="M162.6,337.5C163.7,345.9 161.5,351.5 162.6,365.0" stroke="#000000" fill="none" style="stroke-width: 2;"></path><path d="M162.6,365.0C157.8,365.8 158.6,364.2 142.6,365.0" stroke="#000000" fill="none" style="stroke-width: 2; marker-end: url(&quot;#markerArrowBlock&quot;);"></path></g><g class="signal"><text x="62.158203125" y="387.75" style="font-size: 16px; font-family: danielbd;"><tspan x="62.158203125">执行完成</tspan></text><path d="M142.6,402.5C61.2,398.6 123.3,406.4 45.7,402.5" stroke="#000000" fill="none" style="stroke-width: 2; marker-end: url(&quot;#markerArrowBlock&quot;);"></path></g><g class="signal"><text x="162.60546875" y="430.25" style="font-size: 16px; font-family: danielbd;"><tspan x="162.60546875">请求执行命令</tspan></text><path d="M142.6,445.0C238.8,439.6 197.9,450.4 278.6,445.0" stroke="#000000" fill="none" style="stroke-width: 2; marker-end: url(&quot;#markerArrowBlock&quot;);"></path></g><g class="signal"><text x="303.60546875" y="481.25" style="font-size: 16px; font-family: danielbd;"><tspan x="303.60546875">执行命令</tspan></text><path d="M278.6,465.0C293.8,465.8 290.2,464.2 298.6,465.0" stroke="#000000" fill="none" style="stroke-width: 2;"></path><path d="M298.6,465.0C299.7,485.9 297.5,476.0 298.6,492.5" stroke="#000000" fill="none" style="stroke-width: 2;"></path><path d="M298.6,492.5C287.2,491.7 293.8,493.3 278.6,492.5" stroke="#000000" fill="none" style="stroke-width: 2; marker-end: url(&quot;#markerArrowBlock&quot;);"></path></g><g class="signal"><text x="303.60546875" y="523.75" style="font-size: 16px; font-family: danielbd;"><tspan x="303.60546875">提交日志条目</tspan></text><path d="M278.6,507.5C295.4,508.3 288.2,506.7 298.6,507.5" stroke="#000000" fill="none" style="stroke-width: 2;"></path><path d="M298.6,507.5C297.5,530.6 299.7,528.4 298.6,535.0" stroke="#000000" fill="none" style="stroke-width: 2;"></path><path d="M298.6,535.0C290.5,534.2 292.9,535.8 278.6,535.0" stroke="#000000" fill="none" style="stroke-width: 2; marker-end: url(&quot;#markerArrowBlock&quot;);"></path></g><g class="signal"><text x="210.60546875" y="555" style="font-size: 16px; font-family: danielbd;"><tspan x="210.60546875"></tspan></text><path d="M278.6,550.0C175.2,544.6 193.0,555.4 142.6,550.0" stroke="#000000" fill="none" style="stroke-width: 2; marker-end: url(&quot;#markerArrowBlock&quot;);"></path></g></svg>